<?xml version="1.0" encoding="UTF-8"?><svg id="Layer_1" xmlns="http://www.w3.org/2000/svg" viewBox="0 0 3140 1682.35"><defs><style>.cls-1{fill:#010101;}</style></defs><path class="cls-1" d="M738.82,1023c-26.44-51.59-72.87-52.88-84.48-52.88-50.95,0-79.97,36.76-79.97,79.97,0,46.43,32.25,61.91,75.45,83.19,42.56,20.64,63.85,29.67,85.77,45.14,18.7,12.9,45.79,35.47,45.79,83.19,0,72.23-60.62,125.75-134.14,125.75-55.46,0-83.84-26.44-99.96-45.14-16.77-19.35-23.86-36.12-27.73-47.08l24.51-11.61c5.81,16.77,16.77,33.53,23.22,41.27,19.35,24.51,50.95,36.76,80.61,36.76,58.04,0,103.83-42.56,103.83-99.31,0-23.22-9.03-47.72-41.92-67.71-12.25-7.09-37.4-19.99-72.87-37.4-42.56-20.64-63.85-32.24-78.68-56.75-9.67-16.12-13.54-32.25-13.54-49.01,0-49.66,33.53-107.05,110.28-107.05,43.21,0,82.55,20.64,104.47,61.27l-20.64,17.41Z"/><path class="cls-1" d="M905.85,975.93v404.35h-28.38v-404.35h-111.57v-25.8h251.51v25.8h-111.57Z"/><path class="cls-1" d="M1079.98,950.13v268.92c0,40.63,1.94,67.07,18.06,92.87,25.15,40.63,72.23,49.66,99.96,49.66s74.81-9.03,99.96-49.66c16.12-25.8,18.06-52.24,18.06-92.87v-268.92h28.38v268.92c0,47.08-2.58,78.03-24.51,110.28-32.25,47.08-83.19,58.04-121.89,58.04s-89.64-10.96-121.89-58.04c-21.93-32.24-24.51-63.2-24.51-110.28v-268.92h28.38Z"/><path class="cls-1" d="M1427.58,1380.28v-430.15h85.13c38.05,0,104.47,5.8,158.65,59.98,45.79,45.79,61.91,108.34,61.91,155.42s-16.12,108.99-61.91,154.78c-54.17,54.17-120.6,59.98-158.65,59.98h-85.13ZM1455.95,1354.48h56.11c113.5,0,191.53-77.39,191.53-188.95s-78.68-189.6-191.53-189.6h-56.11v378.56Z"/><path class="cls-1" d="M1821.62,950.13v430.15h-28.38v-430.15h28.38Z"/><path class="cls-1" d="M2327.86,1166.17c0,123.82-97.38,221.2-223.14,221.2s-223.13-97.38-223.13-221.2,97.38-221.85,223.13-221.85,223.14,98.03,223.14,221.85ZM2298.2,1166.17c0-110.28-82.55-196.05-193.47-196.05s-193.47,85.77-193.47,196.05,82.55,195.4,193.47,195.4,193.47-85.77,193.47-195.4Z"/><path class="cls-1" d="M2583.89,1023c-26.44-51.59-72.87-52.88-84.48-52.88-50.95,0-79.97,36.76-79.97,79.97,0,46.43,32.24,61.91,75.45,83.19,42.56,20.64,63.85,29.67,85.77,45.14,18.7,12.9,45.79,35.47,45.79,83.19,0,72.23-60.62,125.75-134.14,125.75-55.46,0-83.84-26.44-99.96-45.14-16.77-19.35-23.86-36.12-27.73-47.08l24.51-11.61c5.8,16.77,16.77,33.53,23.22,41.27,19.35,24.51,50.95,36.76,80.61,36.76,58.04,0,103.83-42.56,103.83-99.31,0-23.22-9.03-47.72-41.92-67.71-12.25-7.09-37.4-19.99-72.87-37.4-42.56-20.64-63.84-32.24-78.68-56.75-9.67-16.12-13.54-32.25-13.54-49.01,0-49.66,33.53-107.05,110.28-107.05,43.21,0,82.55,20.64,104.47,61.27l-20.64,17.41Z"/><path class="cls-1" d="M599.03,799.55c-26.99-13.84-48-33.33-62.99-58.49-15-25.14-22.49-54.1-22.49-86.86v-315.62c0-2.3.8-4.26,2.42-5.88s3.57-2.42,5.88-2.42h80.98c2.3,0,4.26.81,5.88,2.42,1.61,1.62,2.42,3.58,2.42,5.88v316.31c0,24.46,7.49,44.19,22.49,59.18,14.99,15,34.72,22.5,59.18,22.5s44.18-7.5,59.18-22.5c14.99-14.99,22.49-34.72,22.49-59.18v-316.31c0-2.3.8-4.26,2.42-5.88,1.61-1.61,3.57-2.42,5.88-2.42h80.98c2.3,0,4.26.81,5.88,2.42,1.61,1.62,2.42,3.58,2.42,5.88v315.62c0,32.77-7.51,61.72-22.49,86.86-15,25.16-35.99,44.64-62.99,58.49-26.99,13.84-58.26,20.76-93.79,20.76s-66.79-6.92-93.79-20.76Z"/><path class="cls-1" d="M1208.47,808.55l-86.52-191.73c-.93-1.84-2.31-2.77-4.15-2.77h-64.37c-2.32,0-3.46,1.16-3.46,3.46v188.96c0,2.31-.81,4.27-2.42,5.88s-3.58,2.42-5.88,2.42h-80.98c-2.31,0-4.27-.8-5.88-2.42-1.62-1.61-2.42-3.57-2.42-5.88v-467.89c0-2.3.8-4.26,2.42-5.88s3.57-2.42,5.88-2.42h197.96c29.52,0,55.48,6,77.87,18,22.38,12,39.68,29.07,51.91,51.22,12.22,22.15,18.34,47.76,18.34,76.83,0,31.39-7.85,58.26-23.53,80.64-15.69,22.39-37.61,38.19-65.75,47.41-2.31.93-3.01,2.54-2.08,4.85l94.13,195.88c.92,1.85,1.38,3.23,1.38,4.15,0,3.7-2.54,5.54-7.61,5.54h-85.13c-4.62,0-7.85-2.08-9.69-6.23ZM1049.97,417.49v118.36c0,2.31,1.15,3.46,3.46,3.46h90.67c19.38,0,35.18-5.76,47.41-17.3,12.22-11.53,18.34-26.53,18.34-44.99s-6.12-33.57-18.34-45.34c-12.23-11.77-28.03-17.65-47.41-17.65h-90.67c-2.32,0-3.46,1.16-3.46,3.46Z"/><path class="cls-1" d="M1664.59,566.3c43.83,22.61,65.75,60.22,65.75,112.82,0,44.76-15.23,78.56-45.68,101.4-30.45,22.84-70.37,34.26-119.74,34.26h-179.27c-2.31,0-4.27-.8-5.88-2.42-1.62-1.61-2.42-3.57-2.42-5.88v-467.89c0-2.3.8-4.26,2.42-5.88,1.61-1.61,3.57-2.42,5.88-2.42h173.73c109.36,0,164.04,44.3,164.04,132.89,0,46.15-19.62,79.14-58.83,98.98-2.77,1.38-2.77,2.77,0,4.15ZM1474.95,417.49v107.97c0,2.31,1.15,3.46,3.46,3.46h80.98c21.68,0,38.52-5.07,50.53-15.23,11.99-10.14,18-23.99,18-41.53s-6-32.19-18-42.57c-12-10.38-28.84-15.57-50.53-15.57h-80.98c-2.31,0-3.46,1.16-3.46,3.46ZM1614.76,714.07c11.99-10.84,18-25.72,18-44.64s-6-33.8-18-44.64c-12-10.84-28.84-16.27-50.53-16.27h-85.83c-2.31,0-3.46,1.16-3.46,3.46v114.9c0,2.31,1.15,3.46,3.46,3.46h86.52c21.22,0,37.83-5.42,49.84-16.27Z"/><path class="cls-1" d="M2079.19,807.86l-20.76-67.83c-.93-1.84-2.08-2.77-3.46-2.77h-170.27c-1.38,0-2.54.93-3.46,2.77l-20.07,67.83c-1.38,4.62-4.39,6.92-9,6.92h-87.9c-2.77,0-4.84-.8-6.23-2.42-1.38-1.61-1.62-4.03-.69-7.27l149.5-467.89c1.38-4.61,4.38-6.92,9-6.92h108.67c4.61,0,7.61,2.31,9,6.92l149.5,467.89c.45.93.69,2.08.69,3.46,0,4.15-2.54,6.23-7.61,6.23h-87.9c-4.62,0-7.61-2.3-9-6.92ZM1908.92,661.82h121.82c2.77,0,3.69-1.38,2.77-4.15l-62.29-205.57c-.46-1.84-1.16-2.65-2.08-2.42-.93.24-1.62,1.04-2.08,2.42l-60.91,205.57c-.46,2.77.45,4.15,2.77,4.15Z"/><path class="cls-1" d="M2525.28,332.7c1.61-1.61,3.57-2.42,5.88-2.42h80.98c2.3,0,4.26.81,5.88,2.42,1.61,1.62,2.42,3.58,2.42,5.88v467.89c0,2.31-.81,4.27-2.42,5.88-1.62,1.62-3.58,2.42-5.88,2.42h-78.21c-4.62,0-7.85-1.84-9.69-5.54l-179.27-296.24c-.93-1.38-1.85-1.96-2.77-1.73-.93.24-1.38,1.28-1.38,3.11l1.38,292.09c0,2.31-.81,4.27-2.42,5.88-1.62,1.62-3.58,2.42-5.88,2.42h-80.98c-2.32,0-4.27-.8-5.88-2.42-1.62-1.61-2.42-3.57-2.42-5.88v-467.89c0-2.3.8-4.26,2.42-5.88,1.61-1.61,3.57-2.42,5.88-2.42h78.21c4.61,0,7.84,1.85,9.69,5.54l178.57,294.86c.92,1.38,1.84,1.97,2.77,1.73.92-.23,1.39-1.27,1.39-3.11l-.69-290.7c0-2.3.8-4.26,2.42-5.88Z"/></svg>