<svg width="299" height="48" viewBox="0 0 299 48" fill="none" xmlns="http://www.w3.org/2000/svg">
<path d="M10.864 47.64C7.45067 47.64 4.848 46.68 3.056 44.76C1.264 42.7973 0.368 40.0027 0.368 36.376V2.2H7.408V36.888C7.408 38.424 7.70667 39.5333 8.304 40.216C8.944 40.8987 9.84 41.24 10.992 41.24C12.144 41.24 13.0187 40.8987 13.616 40.216C14.256 39.5333 14.576 38.424 14.576 36.888V2.2H21.36V36.376C21.36 40.0027 20.464 42.7973 18.672 44.76C16.88 46.68 14.2773 47.64 10.864 47.64ZM26.374 2.2H36.806C40.4327 2.2 43.078 3.05333 44.742 4.76C46.406 6.424 47.238 9.00533 47.238 12.504V15.256C47.238 19.9067 45.702 22.8507 42.63 24.088V24.216C44.3367 24.728 45.5313 25.7733 46.214 27.352C46.9393 28.9307 47.302 31.0427 47.302 33.688V41.56C47.302 42.84 47.3447 43.8853 47.43 44.696C47.5153 45.464 47.7287 46.232 48.07 47H40.902C40.646 46.2747 40.4753 45.592 40.39 44.952C40.3047 44.312 40.262 43.16 40.262 41.496V33.304C40.262 31.256 39.9207 29.8267 39.238 29.016C38.598 28.2053 37.4673 27.8 35.846 27.8H33.414V47H26.374V2.2ZM35.974 21.4C37.382 21.4 38.4273 21.0373 39.11 20.312C39.8353 19.5867 40.198 18.3707 40.198 16.664V13.208C40.198 11.5867 39.8993 10.4133 39.302 9.688C38.7473 8.96267 37.8513 8.6 36.614 8.6H33.414V21.4H35.974ZM52.1865 2.2H62.8105C66.4372 2.2 69.0825 3.05333 70.7465 4.76C72.4105 6.424 73.2425 9.00533 73.2425 12.504V14.296C73.2425 16.6 72.8585 18.4773 72.0905 19.928C71.3652 21.3787 70.2345 22.424 68.6985 23.064V23.192C72.1972 24.3867 73.9465 27.5013 73.9465 32.536V36.376C73.9465 39.832 73.0292 42.4773 71.1945 44.312C69.4025 46.104 66.7572 47 63.2585 47H52.1865V2.2ZM61.9785 20.44C63.3865 20.44 64.4318 20.0773 65.1145 19.352C65.8398 18.6267 66.2025 17.4107 66.2025 15.704V13.208C66.2025 11.5867 65.9038 10.4133 65.3065 9.688C64.7518 8.96267 63.8558 8.6 62.6185 8.6H59.2265V20.44H61.9785ZM63.2585 40.6C64.4958 40.6 65.4132 40.28 66.0105 39.64C66.6078 38.9573 66.9065 37.8053 66.9065 36.184V32.28C66.9065 30.232 66.5438 28.824 65.8185 28.056C65.1358 27.2453 63.9838 26.84 62.3625 26.84H59.2265V40.6H63.2585ZM83.5015 2.2H93.0375L100.334 47H93.2935L92.0135 38.104V38.232H84.0135L82.7335 47H76.2055L83.5015 2.2ZM91.1815 32.152L88.0455 10.008H87.9175L84.8455 32.152H91.1815ZM103.749 2.2H112.581L119.429 29.016H119.557V2.2H125.829V47H118.597L110.149 14.296H110.021V47H103.749V2.2ZM141.5 39.9688C142.604 41.1979 143.76 42.125 144.969 42.75C146.177 43.375 147.438 43.6875 148.75 43.6875C150.875 43.6875 152.615 42.9167 153.969 41.375C155.344 39.8333 156.031 37.8438 156.031 35.4062C156.031 34.3646 155.885 33.4062 155.594 32.5312C155.323 31.6562 154.896 30.8438 154.312 30.0938C153.417 28.9479 151.833 27.5417 149.562 25.875C148.646 25.2083 147.969 24.6979 147.531 24.3438C145.219 22.4688 143.552 20.625 142.531 18.8125C141.51 16.9792 141 14.9375 141 12.6875C141 9.27083 142.01 6.4375 144.031 4.1875C146.052 1.91667 148.583 0.78125 151.625 0.78125C152.833 0.78125 154.021 0.989583 155.188 1.40625C156.375 1.82292 157.531 2.44792 158.656 3.28125V8.65625C157.74 7.36458 156.698 6.38542 155.531 5.71875C154.365 5.03125 153.125 4.6875 151.812 4.6875C149.833 4.6875 148.229 5.39583 147 6.8125C145.771 8.20833 145.156 10.0417 145.156 12.3125C145.156 14.2292 145.573 15.8854 146.406 17.2812C147.24 18.6562 149.208 20.5 152.312 22.8125C155.521 25.1667 157.635 27.2188 158.656 28.9688C159.677 30.6979 160.188 32.7604 160.188 35.1562C160.188 38.7812 159.146 41.7604 157.062 44.0938C154.979 46.4062 152.333 47.5625 149.125 47.5625C147.729 47.5625 146.406 47.3854 145.156 47.0312C143.906 46.6771 142.688 46.1354 141.5 45.4062V39.9688ZM169.688 5.09375H162.562V1.375H180.938V5.09375H173.844V47H169.688V5.09375ZM186.094 1.375H190.281V34C190.281 37.8125 190.688 40.4167 191.5 41.8125C192.312 43.1875 193.74 43.875 195.781 43.875C197.823 43.875 199.25 43.1875 200.062 41.8125C200.875 40.4167 201.281 37.8125 201.281 34V1.375H205.438V34C205.438 39.0417 204.698 42.5625 203.219 44.5625C201.76 46.5625 199.281 47.5625 195.781 47.5625C192.26 47.5625 189.76 46.5625 188.281 44.5625C186.823 42.5625 186.094 39.0417 186.094 34V1.375ZM218.906 5.15625V43.1562H219.719C223.406 43.1562 225.958 41.8958 227.375 39.375C228.812 36.8542 229.531 32.0312 229.531 24.9062C229.531 16.9271 228.844 11.6458 227.469 9.0625C226.094 6.45833 223.594 5.15625 219.969 5.15625H218.906ZM214.719 1.375H219.906C225.094 1.375 228.708 3 230.75 6.25C232.792 9.47917 233.812 15.5104 233.812 24.3438C233.812 32.7396 232.76 38.6146 230.656 41.9688C228.552 45.3229 224.927 47 219.781 47H214.719V1.375ZM240.781 47V1.375H244.969V47H240.781ZM263.188 4.625C260.771 4.625 258.99 6.19792 257.844 9.34375C256.719 12.4688 256.156 17.4062 256.156 24.1562C256.156 30.9062 256.719 35.8646 257.844 39.0312C258.99 42.1771 260.771 43.75 263.188 43.75C265.625 43.75 267.406 42.1979 268.531 39.0938C269.677 35.9688 270.25 30.9896 270.25 24.1562C270.25 17.3438 269.677 12.3854 268.531 9.28125C267.406 6.17708 265.625 4.625 263.188 4.625ZM251.875 24.2188C251.875 16.2188 252.792 10.3125 254.625 6.5C256.458 2.6875 259.312 0.78125 263.188 0.78125C267.062 0.78125 269.917 2.6875 271.75 6.5C273.604 10.3125 274.531 16.2188 274.531 24.2188C274.531 32.2188 273.604 38.1146 271.75 41.9062C269.917 45.6771 267.062 47.5625 263.188 47.5625C259.312 47.5625 256.458 45.6771 254.625 41.9062C252.792 38.1146 251.875 32.2188 251.875 24.2188ZM279.75 39.9688C280.854 41.1979 282.01 42.125 283.219 42.75C284.427 43.375 285.688 43.6875 287 43.6875C289.125 43.6875 290.865 42.9167 292.219 41.375C293.594 39.8333 294.281 37.8438 294.281 35.4062C294.281 34.3646 294.135 33.4062 293.844 32.5312C293.573 31.6562 293.146 30.8438 292.562 30.0938C291.667 28.9479 290.083 27.5417 287.812 25.875C286.896 25.2083 286.219 24.6979 285.781 24.3438C283.469 22.4688 281.802 20.625 280.781 18.8125C279.76 16.9792 279.25 14.9375 279.25 12.6875C279.25 9.27083 280.26 6.4375 282.281 4.1875C284.302 1.91667 286.833 0.78125 289.875 0.78125C291.083 0.78125 292.271 0.989583 293.438 1.40625C294.625 1.82292 295.781 2.44792 296.906 3.28125V8.65625C295.99 7.36458 294.948 6.38542 293.781 5.71875C292.615 5.03125 291.375 4.6875 290.062 4.6875C288.083 4.6875 286.479 5.39583 285.25 6.8125C284.021 8.20833 283.406 10.0417 283.406 12.3125C283.406 14.2292 283.823 15.8854 284.656 17.2812C285.49 18.6562 287.458 20.5 290.562 22.8125C293.771 25.1667 295.885 27.2188 296.906 28.9688C297.927 30.6979 298.438 32.7604 298.438 35.1562C298.438 38.7812 297.396 41.7604 295.312 44.0938C293.229 46.4062 290.583 47.5625 287.375 47.5625C285.979 47.5625 284.656 47.3854 283.406 47.0312C282.156 46.6771 280.938 46.1354 279.75 45.4062V39.9688Z" fill="black"/>
</svg>
