<?xml version="1.0" encoding="UTF-8"?>
<svg id="Layer_1" xmlns="http://www.w3.org/2000/svg" version="1.1" viewBox="0 0 841.89 595.28">
  <!-- Generator: Adobe Illustrator 29.0.0, SVG Export Plug-In . SVG Version: 2.1.0 Build 186)  -->
  <defs>
    <style>
      .st0 {
        font-family: DINCondensed-Bold, 'DIN Condensed';
        font-size: 131.47px;
        font-weight: 700;
      }

      .st0, .st1 {
        fill: #231f20;
      }

      .st1 {
        font-family: Futura-Thin, 'Futura Thin';
        font-size: 129.31px;
        font-weight: 200;
      }
    </style>
  </defs>
  <text class="st0" transform="translate(81.55 412.79) scale(1.1 1)"><tspan x="0" y="0">URBAN</tspan></text>
  <text class="st1" transform="translate(451.19 413) scale(.67 1)"><tspan x="0" y="0">STUDIOS</tspan></text>
  <path d="M351.15,214.56c.23-.09,2.13-1.61,2.38-1.88,2.25-2.5,2.01-6.94,2.36-9.97.9-7.62,2.93-15.61,1.91-23.18-.33-2.4-2.21-8.75-1.85-10.57.6-3.08-.43-5.95-.61-9.15-.15-2.62,0-5.43-.01-8.08-.03-5.73-.66-11.38.04-17.12.4-3.26,1.05-7.69,1.99-10.81.27-.89,1.15-1.94,1.3-2.86.24-1.43.07-3.99.03-5.55-.02-.62-.82-4.67.13-4.65,1.93.66,2.61,9.58,3.62,9.58,1.63-1.35,2.95-2.65,4.09-4.37.28-.43.89-1.97,1.05-2.08,1.52-.97,1.19,2.49,1,3.18-.51,1.8-2.81,3.07-2.93,5.04,2.72.21,6.57-3.23,8.56-3.49,1.23-.16,1.04,1.17.7,1.92-.67,1.47-5.7,3.6-7.31,4.48.93.99,7.77.24,8.08.63-.21,2.68-5.07,1.44-6.57,2.52-1.53,3.19-3.36,6.24-6.13,8.7,2.23,9.03,5.18,17.9,6.81,27.05,1.41,7.97,3.35,17.29,4.22,25.2.41,3.73-.03,7.25,0,10.98,3.95-.01,7.91.65,11.7,1.64,2.5.65,5.55,2.14,7.97,2.37,2.06.19,4.3-.1,6.37.03,12.19.79,19.37,6.25,30.44,9.26,2.42.66,7.11.91,8.54,2.86,1.25,1.7.2,2.7.64,3.95.2.56,2.25,3.18,2.78,3.32,4.58-.53,9.07-1.59,13.63-2.19,8.91-1.17,18-1.65,26.97-.8,3.26.31,10.28,1.03,13.16,1.96,1.51.49,6.02,4.78,6.42,6.04,1.71,5.4-6.14,15.92-9.58,20.23-10.28,12.9-23.83,24.14-36.2,35.34-.75,8.28-1.81,16.6-3.6,24.75-2.4,10.93-9.16,23.2-13.72,33.75-4.87,11.24-12.02,24.74-13.72,36.53-.88,6.14-1.93,13.06-2.51,19.18-.14,1.45-.8,7.89.28,8.57,2.73,1.01,7.32,1.36,7.81,4.53-.24,1.58-4.33,1.94-5.72,1.93-.58,0-1.13-.26-1.67-.27-2.11-.05-7.2.15-8.78-.88-3.61-2.35-3.39-10.85-5.99-14.25-1.91-2.48-7.78-7.43-8.18-10.01-.88-5.76,2.55-5.84,5.39-9.46,3.29-4.19,5.86-14.39,6.28-19.54.56-6.82-1.12-13.87,1.99-20.4,2.57-5.4,7.54-10.51,9.29-16.31,1.85-6.13.97-13.04,1.82-19.3-.17-.36-.52-.03-.75.08-7.39,3.43-12.97,10.54-20.34,14.38-1.56.81-3.45,1.35-4.92,2.11-1.58.82-4.95,3.47-6.37,3.84-1.6.41-2.32-1.11-2.05-2.37.58-2.75,4.64-4.82,6.56-6.94,2.85-3.14,5.58-7.84,6.83-11.73,1.04-3.21.93-7.69,5-9.1,4.64-1.6,7.73-.5,11.99-4.28,1.64-1.46,1.85-3.12,1.52-5.15-.27-1.63-.98-4.92-1.45-6.51-1.04-3.46-5.66-6.74-8.12-9.55-2.84-3.24-5.04-7.57-6.57-11.46-1.38-3.5-2.34-9.49-4.62-12.22-.43-.52-2.5-2.61-3.15-2.26-2.06,3.77-5.89,6.37-9.87,8.34-8.41,4.17-25.11,9.98-34.58,9.29-4.6-.34-7.98-2.37-12.06-2.96-1.48-.21-4.66-.51-6.07-.34-.26.03-3.58,1.74-3.75,1.9-.65.65.2,2.63.28,3.54.57,7.13-3.9,13.86-4.17,20.94-.13,3.48.59,5.99,1.18,9.28.04.21.33.61-.22.69-.62.08-2.64-1.78-3.04-2.29-1.15-1.46-1.36-3.54-2.66-4.78-1.34,2.75-3.83,5.14-6.6,6.76l-4.26,2.07,2.92-4.8c.24-.81.72-1.65.92-2.45.06-.25.28-.89-.21-.82-1.77,5.26-7.84,7.48-10.45,12.36-.44.1-.61-.31-.68-.64-.36-1.66-.43-3.71-.57-5.42-2.76.81-4.7,2.23-4.73,5.05-.77.62-3.2-3.24-3.49-3.77-2.32-4.28-1.85-7.25,1.95-10.62s6.35-4.71,9.11-9.16c.46-.74,1.21-1.84,1.21-2.69-4.39,2.76-8.68,5.71-13.32,8.12-1.73.9-3.65,1.54-5.39,2.44-4.72,2.44-9.2,5.3-14.25,7.15-.06,2.29-.25,4.7.5,6.91.1.3,1.1,2.46,1.2,2.57.45.49,2.81,1.07,2.89,2.21l-.24.57c-4.47,1.74-5.02-2.81-7.64-4.71-.93-.15-3.13,4.09-3.11,4.82.1,3.12,4.42,8.01,3.79,10.62-.18.73-1.62,1.8-2.03,1.19l-5.71-11.61-5.97,8.08c-.96.99-2.11.92-2.9-.17l6.51-11.7c1.22-4.41,2.39-9.95,4.54-14.06.28-.53.98-1.05,1.31-1.59,17.19-11.61,34.88-22.7,50.84-35.7-5.19-2.11-9.17-4.08-10.83-9.36-2.11-6.72-.17-11.71,4.84-16.76,2.37-2.39,4.54-2.57,6.97-4.29,1.29-.91,2.67-3.43,4.33-3.18,1.57.24,1.16,1.42,3.42.35,1.45-.68,2.45-1.21,3.93-1.74.78-.28,1.69-.22,2.55-.47.99-.29,1.95-1.15,2.79-1.27,3.76-.51,5.09,5.3,6.57,7.52h1.6c.23-2.92,2.76-1.95,4.48-2.61ZM453.32,258.74c.07.27-.12.66.32.59-.72-1.29,5.12-7.29,4.74-7.57l-6.12,1.52c.33,1.81.61,3.67,1.06,5.46Z"/>
</svg>