<svg width="298" height="47" viewBox="0 0 298 47" fill="none" xmlns="http://www.w3.org/2000/svg">
<path d="M10.864 46.64C7.45067 46.64 4.848 45.68 3.056 43.76C1.264 41.7973 0.368 39.0027 0.368 35.376V1.2H7.408V35.888C7.408 37.424 7.70667 38.5333 8.304 39.216C8.944 39.8987 9.84 40.24 10.992 40.24C12.144 40.24 13.0187 39.8987 13.616 39.216C14.256 38.5333 14.576 37.424 14.576 35.888V1.2H21.36V35.376C21.36 39.0027 20.464 41.7973 18.672 43.76C16.88 45.68 14.2773 46.64 10.864 46.64ZM26.374 1.2H36.806C40.4327 1.2 43.078 2.05333 44.742 3.76C46.406 5.424 47.238 8.00533 47.238 11.504V14.256C47.238 18.9067 45.702 21.8507 42.63 23.088V23.216C44.3367 23.728 45.5313 24.7733 46.214 26.352C46.9393 27.9307 47.302 30.0427 47.302 32.688V40.56C47.302 41.84 47.3447 42.8853 47.43 43.696C47.5153 44.464 47.7287 45.232 48.07 46H40.902C40.646 45.2747 40.4753 44.592 40.39 43.952C40.3047 43.312 40.262 42.16 40.262 40.496V32.304C40.262 30.256 39.9207 28.8267 39.238 28.016C38.598 27.2053 37.4673 26.8 35.846 26.8H33.414V46H26.374V1.2ZM35.974 20.4C37.382 20.4 38.4273 20.0373 39.11 19.312C39.8353 18.5867 40.198 17.3707 40.198 15.664V12.208C40.198 10.5867 39.8993 9.41333 39.302 8.688C38.7473 7.96267 37.8513 7.6 36.614 7.6H33.414V20.4H35.974ZM52.1865 1.2H62.8105C66.4372 1.2 69.0825 2.05333 70.7465 3.76C72.4105 5.424 73.2425 8.00533 73.2425 11.504V13.296C73.2425 15.6 72.8585 17.4773 72.0905 18.928C71.3652 20.3787 70.2345 21.424 68.6985 22.064V22.192C72.1972 23.3867 73.9465 26.5013 73.9465 31.536V35.376C73.9465 38.832 73.0292 41.4773 71.1945 43.312C69.4025 45.104 66.7572 46 63.2585 46H52.1865V1.2ZM61.9785 19.44C63.3865 19.44 64.4318 19.0773 65.1145 18.352C65.8398 17.6267 66.2025 16.4107 66.2025 14.704V12.208C66.2025 10.5867 65.9038 9.41333 65.3065 8.688C64.7518 7.96267 63.8558 7.6 62.6185 7.6H59.2265V19.44H61.9785ZM63.2585 39.6C64.4958 39.6 65.4132 39.28 66.0105 38.64C66.6078 37.9573 66.9065 36.8053 66.9065 35.184V31.28C66.9065 29.232 66.5438 27.824 65.8185 27.056C65.1358 26.2453 63.9838 25.84 62.3625 25.84H59.2265V39.6H63.2585ZM83.5015 1.2H93.0375L100.334 46H93.2935L92.0135 37.104V37.232H84.0135L82.7335 46H76.2055L83.5015 1.2ZM91.1815 31.152L88.0455 9.008H87.9175L84.8455 31.152H91.1815ZM103.749 1.2H112.581L119.429 28.016H119.557V1.2H125.829V46H118.597L110.149 13.296H110.021V46H103.749V1.2ZM150.464 46.64C147.05 46.64 144.469 45.68 142.72 43.76C140.97 41.7973 140.096 39.0027 140.096 35.376V32.816H146.752V35.888C146.752 38.7893 147.968 40.24 150.4 40.24C151.594 40.24 152.49 39.8987 153.088 39.216C153.728 38.4907 154.048 37.3387 154.048 35.76C154.048 33.8827 153.621 32.24 152.768 30.832C151.914 29.3813 150.336 27.6533 148.032 25.648C145.13 23.088 143.104 20.784 141.952 18.736C140.8 16.6453 140.224 14.2987 140.224 11.696C140.224 8.15467 141.12 5.424 142.911 3.504C144.704 1.54133 147.306 0.559998 150.72 0.559998C154.09 0.559998 156.629 1.54133 158.336 3.504C160.085 5.424 160.96 8.19733 160.96 11.824V13.68H154.304V11.376C154.304 9.84 154.005 8.73066 153.408 8.048C152.81 7.32266 151.936 6.96 150.784 6.96C148.437 6.96 147.264 8.38933 147.264 11.248C147.264 12.8693 147.69 14.384 148.544 15.792C149.44 17.2 151.04 18.9067 153.344 20.912C156.288 23.472 158.314 25.7973 159.424 27.888C160.533 29.9787 161.088 32.432 161.088 35.248C161.088 38.9173 160.17 41.7333 158.336 43.696C156.544 45.6587 153.92 46.64 150.464 46.64ZM170.628 7.6H163.268V1.2H185.028V7.6H177.668V46H170.628V7.6ZM198.677 46.64C195.263 46.64 192.661 45.68 190.869 43.76C189.077 41.7973 188.181 39.0027 188.181 35.376V1.2H195.22V35.888C195.22 37.424 195.519 38.5333 196.117 39.216C196.757 39.8987 197.653 40.24 198.805 40.24C199.957 40.24 200.831 39.8987 201.429 39.216C202.069 38.5333 202.389 37.424 202.389 35.888V1.2H209.173V35.376C209.173 39.0027 208.277 41.7973 206.485 43.76C204.693 45.68 202.09 46.64 198.677 46.64ZM214.187 1.2H224.939C228.437 1.2 231.061 2.13866 232.811 4.016C234.56 5.89333 235.435 8.64533 235.435 12.272V34.928C235.435 38.5547 234.56 41.3067 232.811 43.184C231.061 45.0613 228.437 46 224.939 46H214.187V1.2ZM224.811 39.6C225.963 39.6 226.837 39.2587 227.435 38.576C228.075 37.8933 228.395 36.784 228.395 35.248V11.952C228.395 10.416 228.075 9.30666 227.435 8.624C226.837 7.94133 225.963 7.6 224.811 7.6H221.227V39.6H224.811ZM240.187 1.2H247.227V46H240.187V1.2ZM262.675 46.64C259.219 46.64 256.574 45.6587 254.739 43.696C252.904 41.7333 251.987 38.96 251.987 35.376V11.824C251.987 8.24 252.904 5.46666 254.739 3.504C256.574 1.54133 259.219 0.559998 262.675 0.559998C266.131 0.559998 268.776 1.54133 270.611 3.504C272.446 5.46666 273.363 8.24 273.363 11.824V35.376C273.363 38.96 272.446 41.7333 270.611 43.696C268.776 45.6587 266.131 46.64 262.675 46.64ZM262.675 40.24C265.107 40.24 266.323 38.768 266.323 35.824V11.376C266.323 8.432 265.107 6.96 262.675 6.96C260.243 6.96 259.027 8.432 259.027 11.376V35.824C259.027 38.768 260.243 40.24 262.675 40.24ZM287.276 46.64C283.863 46.64 281.281 45.68 279.532 43.76C277.783 41.7973 276.908 39.0027 276.908 35.376V32.816H283.564V35.888C283.564 38.7893 284.78 40.24 287.212 40.24C288.407 40.24 289.303 39.8987 289.9 39.216C290.54 38.4907 290.86 37.3387 290.86 35.76C290.86 33.8827 290.433 32.24 289.58 30.832C288.727 29.3813 287.148 27.6533 284.844 25.648C281.943 23.088 279.916 20.784 278.764 18.736C277.612 16.6453 277.036 14.2987 277.036 11.696C277.036 8.15467 277.932 5.424 279.724 3.504C281.516 1.54133 284.119 0.559998 287.532 0.559998C290.903 0.559998 293.441 1.54133 295.148 3.504C296.897 5.424 297.772 8.19733 297.772 11.824V13.68H291.116V11.376C291.116 9.84 290.817 8.73066 290.22 8.048C289.623 7.32266 288.748 6.96 287.596 6.96C285.249 6.96 284.076 8.38933 284.076 11.248C284.076 12.8693 284.503 14.384 285.356 15.792C286.252 17.2 287.852 18.9067 290.156 20.912C293.1 23.472 295.127 25.7973 296.236 27.888C297.345 29.9787 297.9 32.432 297.9 35.248C297.9 38.9173 296.983 41.7333 295.148 43.696C293.356 45.6587 290.732 46.64 287.276 46.64Z" fill="black"/>
</svg>
