<svg width="299" height="47" viewBox="0 0 299 47" fill="none" xmlns="http://www.w3.org/2000/svg">
<path d="M10.4961 46.8588C7.08275 46.8588 4.48008 45.8988 2.68808 43.9787C0.89608 42.0161 8.01086e-05 39.2214 8.01086e-05 35.5947V1.41875H7.04008V36.1067C7.04008 37.6427 7.33875 38.7521 7.93608 39.4347C8.57608 40.1174 9.47208 40.4587 10.6241 40.4587C11.7761 40.4587 12.6507 40.1174 13.2481 39.4347C13.8881 38.7521 14.2081 37.6427 14.2081 36.1067V1.41875H20.9921V35.5947C20.9921 39.2214 20.0961 42.0161 18.3041 43.9787C16.5121 45.8988 13.9094 46.8588 10.4961 46.8588ZM26.0061 1.41875H36.4381C40.0647 1.41875 42.7101 2.27208 44.3741 3.97875C46.0381 5.64275 46.8701 8.22408 46.8701 11.7227V14.4747C46.8701 19.1254 45.3341 22.0694 42.2621 23.3067V23.4347C43.9687 23.9467 45.1634 24.9921 45.8461 26.5707C46.5714 28.1494 46.9341 30.2614 46.9341 32.9067V40.7787C46.9341 42.0587 46.9767 43.1041 47.0621 43.9147C47.1474 44.6827 47.3607 45.4507 47.7021 46.2188H40.5341C40.2781 45.4934 40.1074 44.8107 40.0221 44.1707C39.9367 43.5307 39.8941 42.3787 39.8941 40.7147V32.5227C39.8941 30.4747 39.5527 29.0454 38.8701 28.2347C38.2301 27.4241 37.0994 27.0187 35.4781 27.0187H33.0461V46.2188H26.0061V1.41875ZM35.6061 20.6187C37.0141 20.6187 38.0594 20.2561 38.7421 19.5307C39.4674 18.8054 39.8301 17.5894 39.8301 15.8827V12.4268C39.8301 10.8054 39.5314 9.63208 38.9341 8.90675C38.3794 8.18142 37.4834 7.81875 36.2461 7.81875H33.0461V20.6187H35.6061ZM51.8186 1.41875H62.4426C66.0692 1.41875 68.7146 2.27208 70.3786 3.97875C72.0426 5.64275 72.8746 8.22408 72.8746 11.7227V13.5147C72.8746 15.8187 72.4906 17.6961 71.7226 19.1467C70.9972 20.5974 69.8666 21.6427 68.3306 22.2827V22.4107C71.8292 23.6054 73.5786 26.7201 73.5786 31.7547V35.5947C73.5786 39.0507 72.6612 41.6961 70.8266 43.5307C69.0346 45.3227 66.3892 46.2188 62.8906 46.2188H51.8186V1.41875ZM61.6106 19.6587C63.0186 19.6587 64.0639 19.2961 64.7466 18.5707C65.4719 17.8454 65.8346 16.6294 65.8346 14.9227V12.4268C65.8346 10.8054 65.5359 9.63208 64.9386 8.90675C64.3839 8.18142 63.4879 7.81875 62.2506 7.81875H58.8586V19.6587H61.6106ZM62.8906 39.8187C64.1279 39.8187 65.0452 39.4987 65.6426 38.8587C66.2399 38.1761 66.5386 37.0241 66.5386 35.4027V31.4987C66.5386 29.4507 66.1759 28.0427 65.4506 27.2747C64.7679 26.4641 63.6159 26.0587 61.9946 26.0587H58.8586V39.8187H62.8906ZM83.1336 1.41875H92.6696L99.9656 46.2188H92.9256L91.6456 37.3227V37.4507H83.6456L82.3656 46.2188H75.8376L83.1336 1.41875ZM90.8136 31.3707L87.6776 9.22675H87.5496L84.4776 31.3707H90.8136ZM103.381 1.41875H112.213L119.061 28.2347H119.189V1.41875H125.461V46.2188H118.229L109.781 13.5147H109.653V46.2188H103.381V1.41875ZM141.132 39.1875C142.236 40.4167 143.392 41.3438 144.601 41.9688C145.809 42.5938 147.07 42.9062 148.382 42.9062C150.507 42.9062 152.247 42.1354 153.601 40.5938C154.976 39.0521 155.663 37.0625 155.663 34.625C155.663 33.5833 155.517 32.625 155.226 31.75C154.955 30.875 154.528 30.0625 153.945 29.3125C153.049 28.1667 151.465 26.7604 149.195 25.0938C148.278 24.4271 147.601 23.9167 147.163 23.5625C144.851 21.6875 143.184 19.8438 142.163 18.0312C141.142 16.1979 140.632 14.1562 140.632 11.9062C140.632 8.48958 141.642 5.65625 143.663 3.40625C145.684 1.13542 148.215 0 151.257 0C152.465 0 153.653 0.208333 154.82 0.625C156.007 1.04167 157.163 1.66667 158.288 2.5V7.875C157.372 6.58333 156.33 5.60417 155.163 4.9375C153.997 4.25 152.757 3.90625 151.445 3.90625C149.465 3.90625 147.861 4.61458 146.632 6.03125C145.403 7.42708 144.788 9.26042 144.788 11.5312C144.788 13.4479 145.205 15.1042 146.038 16.5C146.872 17.875 148.84 19.7188 151.945 22.0312C155.153 24.3854 157.267 26.4375 158.288 28.1875C159.309 29.9167 159.82 31.9792 159.82 34.375C159.82 38 158.778 40.9792 156.695 43.3125C154.611 45.625 151.965 46.7812 148.757 46.7812C147.361 46.7812 146.038 46.6042 144.788 46.25C143.538 45.8958 142.32 45.3542 141.132 44.625V39.1875ZM169.32 4.3125H162.195V0.59375H180.57V4.3125H173.476V46.2188H169.32V4.3125ZM185.726 0.59375H189.913V33.2188C189.913 37.0312 190.32 39.6354 191.132 41.0312C191.945 42.4062 193.372 43.0938 195.413 43.0938C197.455 43.0938 198.882 42.4062 199.695 41.0312C200.507 39.6354 200.913 37.0312 200.913 33.2188V0.59375H205.07V33.2188C205.07 38.2604 204.33 41.7812 202.851 43.7812C201.392 45.7812 198.913 46.7812 195.413 46.7812C191.892 46.7812 189.392 45.7812 187.913 43.7812C186.455 41.7812 185.726 38.2604 185.726 33.2188V0.59375ZM218.538 4.375V42.375H219.351C223.038 42.375 225.59 41.1146 227.007 38.5938C228.445 36.0729 229.163 31.25 229.163 24.125C229.163 16.1458 228.476 10.8646 227.101 8.28125C225.726 5.67708 223.226 4.375 219.601 4.375H218.538ZM214.351 0.59375H219.538C224.726 0.59375 228.34 2.21875 230.382 5.46875C232.424 8.69792 233.445 14.7292 233.445 23.5625C233.445 31.9583 232.392 37.8333 230.288 41.1875C228.184 44.5417 224.559 46.2188 219.413 46.2188H214.351V0.59375ZM240.413 46.2188V0.59375H244.601V46.2188H240.413ZM262.82 3.84375C260.403 3.84375 258.622 5.41667 257.476 8.5625C256.351 11.6875 255.788 16.625 255.788 23.375C255.788 30.125 256.351 35.0833 257.476 38.25C258.622 41.3958 260.403 42.9688 262.82 42.9688C265.257 42.9688 267.038 41.4167 268.163 38.3125C269.309 35.1875 269.882 30.2083 269.882 23.375C269.882 16.5625 269.309 11.6042 268.163 8.5C267.038 5.39583 265.257 3.84375 262.82 3.84375ZM251.507 23.4375C251.507 15.4375 252.424 9.53125 254.257 5.71875C256.09 1.90625 258.945 0 262.82 0C266.695 0 269.549 1.90625 271.382 5.71875C273.236 9.53125 274.163 15.4375 274.163 23.4375C274.163 31.4375 273.236 37.3333 271.382 41.125C269.549 44.8958 266.695 46.7812 262.82 46.7812C258.945 46.7812 256.09 44.8958 254.257 41.125C252.424 37.3333 251.507 31.4375 251.507 23.4375ZM279.382 39.1875C280.486 40.4167 281.642 41.3438 282.851 41.9688C284.059 42.5938 285.32 42.9062 286.632 42.9062C288.757 42.9062 290.497 42.1354 291.851 40.5938C293.226 39.0521 293.913 37.0625 293.913 34.625C293.913 33.5833 293.767 32.625 293.476 31.75C293.205 30.875 292.778 30.0625 292.195 29.3125C291.299 28.1667 289.715 26.7604 287.445 25.0938C286.528 24.4271 285.851 23.9167 285.413 23.5625C283.101 21.6875 281.434 19.8438 280.413 18.0312C279.392 16.1979 278.882 14.1562 278.882 11.9062C278.882 8.48958 279.892 5.65625 281.913 3.40625C283.934 1.13542 286.465 0 289.507 0C290.715 0 291.903 0.208333 293.07 0.625C294.257 1.04167 295.413 1.66667 296.538 2.5V7.875C295.622 6.58333 294.58 5.60417 293.413 4.9375C292.247 4.25 291.007 3.90625 289.695 3.90625C287.715 3.90625 286.111 4.61458 284.882 6.03125C283.653 7.42708 283.038 9.26042 283.038 11.5312C283.038 13.4479 283.455 15.1042 284.288 16.5C285.122 17.875 287.09 19.7188 290.195 22.0312C293.403 24.3854 295.517 26.4375 296.538 28.1875C297.559 29.9167 298.07 31.9792 298.07 34.375C298.07 38 297.028 40.9792 294.945 43.3125C292.861 45.625 290.215 46.7812 287.007 46.7812C285.611 46.7812 284.288 46.6042 283.038 46.25C281.788 45.8958 280.57 45.3542 279.382 44.625V39.1875Z" fill="black"/>
</svg>
